HIERARCHY
ROOT joint_Root
{
	OFFSET 0.0 0.0 0.0
	CHANNELS 6 Xposition Yposition Zposition Zrotation Xrotation Yrotation 
	JOINT Hips
	{
		OFFSET -17.1583 93.1646 452.98
		CHANNELS 6 Xposition Yposition Zposition Zrotation Xrotation Yrotation 
		JOINT Spine
		{
			OFFSET 15.7357 0.0 0.0
			CHANNELS 6 Xposition Yposition Zposition Zrotation Xrotation Yrotation 
			JOINT Chest
			{
				OFFSET 8.98455 -0.406207 0.0
				CHANNELS 6 Xposition Yposition Zposition Zrotation Xrotation Yrotation 
				JOINT Neck
				{
					OFFSET 16.3773 0.0 0.0
					CHANNELS 6 Xposition Yposition Zposition Zrotation Xrotation Yrotation 
					JOINT Head
					{
						OFFSET 6.45672 0.0 0.0
						CHANNELS 6 Xposition Yposition Zposition Zrotation Xrotation Yrotation 
						End Site
						{
							OFFSET 0.0 0.0 0.0
						}
					}
				}
				JOINT Shoulder_L
				{
					OFFSET 12.9942 -0.242716 4.98039
					CHANNELS 6 Xposition Yposition Zposition Zrotation Xrotation Yrotation 
					JOINT UpperArm_L
					{
						OFFSET 5.34809 0.0 0.0
						CHANNELS 6 Xposition Yposition Zposition Zrotation Xrotation Yrotation 
						JOINT LowerArm_L
						{
							OFFSET 24.3286 1.87007e-05 0.0
							CHANNELS 6 Xposition Yposition Zposition Zrotation Xrotation Yrotation 
							JOINT Hand_L
							{
								OFFSET 22.2916 0.0 0.0
								CHANNELS 6 Xposition Yposition Zposition Zrotation Xrotation Yrotation 
								End Site
								{
									OFFSET 0.0 0.0 0.0
								}
							}
						}
					}
				}
				JOINT Shoulder_R
				{
					OFFSET 12.9945 -0.242716 -4.98039
					CHANNELS 6 Xposition Yposition Zposition Zrotation Xrotation Yrotation 
					JOINT UpperArm_R
					{
						OFFSET -5.34813 0.0 0.0
						CHANNELS 6 Xposition Yposition Zposition Zrotation Xrotation Yrotation 
						JOINT LowerArm_R
						{
							OFFSET -24.3289 0.000322201 0.0
							CHANNELS 6 Xposition Yposition Zposition Zrotation Xrotation Yrotation 
							JOINT Hand_R
							{
								OFFSET -22.2915 -0.000108084 0.0
								CHANNELS 6 Xposition Yposition Zposition Zrotation Xrotation Yrotation 
								End Site
								{
									OFFSET 0.0 0.0 0.0
								}
							}
						}
					}
				}
			}
		}
		JOINT UpperLeg_L
		{
			OFFSET -2.19248 -6.46944 0.0
			CHANNELS 6 Xposition Yposition Zposition Zrotation Xrotation Yrotation 
			JOINT LowerLeg_L
			{
				OFFSET 39.0811 0.0 -1.23785e-05
				CHANNELS 6 Xposition Yposition Zposition Zrotation Xrotation Yrotation 
				JOINT Foot_L
				{
					OFFSET 40.9854 0.0 -1.26872e-05
					CHANNELS 6 Xposition Yposition Zposition Zrotation Xrotation Yrotation 
					JOINT Toes_L
					{
						OFFSET 11.7543 0.0 0.0
						CHANNELS 6 Xposition Yposition Zposition Zrotation Xrotation Yrotation 
						End Site
						{
							OFFSET 0.0 0.0 0.0
						}
					}
				}
			}
		}
		JOINT UpperLeg_R
		{
			OFFSET -2.19251 6.46944 0.0
			CHANNELS 6 Xposition Yposition Zposition Zrotation Xrotation Yrotation 
			JOINT LowerLeg_R
			{
				OFFSET -39.0811 -0.00228153 -0.0401928
				CHANNELS 6 Xposition Yposition Zposition Zrotation Xrotation Yrotation 
				JOINT Foot_R
				{
					OFFSET -40.9854 0.0 0.0
					CHANNELS 6 Xposition Yposition Zposition Zrotation Xrotation Yrotation 
					JOINT Toes_R
					{
						OFFSET -11.7543 0.0 0.0
						CHANNELS 6 Xposition Yposition Zposition Zrotation Xrotation Yrotation 
						End Site
						{
							OFFSET 0.0 0.0 0.0
						}
					}
				}
			}
		}
	}
}
MOTION
Frames:	4
Frame Time:	0.0333333
0.000000 0.000000 0.000000 0.000000 0.000000 -0.000000 -2.683960 91.803100 -0.544790 85.145000 1.035890 7.533570 15.735700 0.000005 -0.000001 83.851700 85.999000 -82.007200 8.984550 -0.406207 -0.000000 0.208512 -0.978390 3.688440 16.377300 -0.000001 -0.000001 10.676000 1.143770 -0.782308 6.456720 -0.000001 -0.000000 -3.748530 -0.263845 4.882560 12.994200 -0.242716 4.980390 -93.264800 9.295920 -70.550400 5.348090 -0.000007 -0.000001 -71.038800 20.760600 -1.442500 24.328600 0.000019 0.000005 15.182300 26.726200 -31.106600 22.291600 -0.000001 0.000005 -7.721060 5.053310 6.164580 12.994500 -0.242716 -4.980390 87.559100 6.653730 -69.802100 -5.348130 -0.000001 -0.000004 -69.511500 32.660200 -5.254590 -24.328900 0.000322 -0.000009 1.323090 4.882190 -15.194700 -22.291500 -0.000108 -0.000004 -2.309540 5.295880 0.187472 -2.192480 -6.469440 -0.000000 -175.057000 4.238180 -0.590529 39.081100 -0.000007 -0.000012 0.401808 -0.738880 28.538700 40.985400 -0.000006 -0.000013 1.310640 4.096470 -76.257000 11.754300 -0.000000 0.000003 -0.000512 0.175835 -9.444550 -2.192510 6.469440 -0.000001 -172.029000 9.523190 -173.638000 -39.081100 -0.002282 -0.040193 0.146660 -0.467443 17.047500 -40.985400 0.000008 0.000006 4.966590 1.906500 -72.185300 -11.754300 -0.000006 -0.000006 -0.011643 0.283196 -5.064360
0.000000 0.000000 0.000000 0.000000 0.000000 -0.000000 -2.693360 91.804900 -0.512951 85.163300 0.979431 7.444020 15.735700 0.000005 -0.000001 83.579300 85.998100 -81.736600 8.984550 -0.406207 -0.000000 0.206747 -1.016310 3.684960 16.377300 -0.000001 -0.000001 10.546100 1.175880 -0.916828 6.456720 -0.000001 -0.000000 -3.976640 -0.244901 4.532150 12.994200 -0.242716 4.980390 -93.323700 9.434380 -70.491400 5.348090 -0.000007 -0.000001 -70.699900 20.219300 -1.477400 24.328600 0.000019 0.000005 15.919000 26.243300 -32.822800 22.291600 -0.000001 0.000005 -8.312580 5.048140 6.278220 12.994500 -0.242716 -4.980390 87.540200 6.702360 -69.792900 -5.348130 -0.000001 -0.000004 -69.423800 32.551400 -5.224880 -24.328900 0.000322 -0.000009 1.358370 4.995780 -15.243500 -22.291500 -0.000108 -0.000004 -2.350180 5.293870 0.243383 -2.192480 -6.469440 -0.000000 -175.028000 4.112860 -0.635124 39.081100 -0.000007 -0.000012 0.392858 -0.724081 28.483500 40.985400 -0.000006 -0.000013 1.320660 4.172310 -76.166100 11.754300 -0.000000 0.000003 -0.000515 0.175889 -9.442350 -2.192510 6.469440 -0.000001 -172.035000 9.494980 -173.691000 -39.081100 -0.002282 -0.040193 0.146395 -0.467337 17.021400 -40.985400 0.000008 0.000006 4.983410 1.988410 -72.178000 -11.754300 -0.000006 -0.000006 -0.011780 0.284154 -5.025140
0.000000 0.000000 0.000000 0.000000 0.000000 -0.000000 -2.711170 91.823000 -0.496650 85.186100 0.929043 7.266400 15.735700 0.000005 -0.000001 83.627800 86.030300 -81.795100 8.984550 -0.406207 -0.000000 0.143029 -1.002780 3.664340 16.377300 -0.000001 -0.000001 10.349600 1.156000 -1.132680 6.456720 -0.000001 -0.000000 -4.253770 -0.259041 4.117670 12.994200 -0.242716 4.980390 -93.362700 9.512510 -70.427900 5.348090 -0.000007 -0.000001 -70.329800 19.480500 -1.357880 24.328600 0.000019 0.000005 16.879100 25.110300 -35.565500 22.291600 -0.000001 0.000005 -8.692800 5.028880 6.699310 12.994500 -0.242716 -4.980390 87.492100 6.798270 -69.695400 -5.348130 -0.000001 -0.000004 -69.278000 32.569100 -5.199210 -24.328900 0.000322 -0.000009 1.368550 5.034010 -15.241400 -22.291500 -0.000108 -0.000004 -2.362180 5.294350 0.230371 -2.192480 -6.469440 -0.000000 -175.010000 3.997380 -0.733078 39.081100 -0.000007 -0.000012 0.393855 -0.729283 28.372600 40.985400 -0.000006 -0.000013 1.327240 4.252790 -76.222500 11.754300 -0.000000 0.000003 -0.000578 0.176843 -9.403590 -2.192510 6.469440 -0.000001 -172.061000 9.503690 -173.824000 -39.081100 -0.002282 -0.040193 0.141505 -0.452932 16.965800 -40.985400 0.000008 0.000006 4.815420 2.112050 -72.169000 -11.754300 -0.000006 -0.000006 -0.012053 0.286057 -4.947180
0.000000 0.000000 0.000000 0.000000 0.000000 -0.000000 -2.721740 91.823900 -0.479961 85.202700 0.842092 7.114210 15.735700 0.000005 -0.000001 83.865000 86.047400 -82.025500 8.984550 -0.406207 -0.000000 0.112089 -0.967408 3.677640 16.377300 -0.000001 -0.000001 10.148200 1.113490 -1.412620 6.456720 -0.000001 -0.000000 -4.674380 -0.346957 3.409490 12.994200 -0.242716 4.980390 -93.411200 9.595120 -70.322800 5.348090 -0.000007 -0.000001 -69.905000 18.650300 -1.025740 24.328600 0.000019 0.000005 18.719800 23.959800 -39.843200 22.291600 -0.000001 0.000005 -8.889860 4.999030 7.340380 12.994500 -0.242716 -4.980390 87.438700 6.909380 -69.602200 -5.348130 -0.000001 -0.000004 -69.066700 32.648300 -5.196340 -24.328900 0.000322 -0.000009 1.326530 4.868260 -15.273800 -22.291500 -0.000108 -0.000004 -2.269010 5.292640 0.277833 -2.192480 -6.469440 -0.000000 -174.990000 3.834790 -0.854009 39.081100 -0.000007 -0.000012 0.393771 -0.729805 28.350400 40.985400 -0.000006 -0.000013 1.325810 4.272390 -76.231000 11.754300 -0.000000 0.000003 -0.000669 0.178216 -9.347830 -2.192510 6.469440 -0.000001 -172.044000 9.433660 -173.945000 -39.081100 -0.002282 -0.040193 0.141137 -0.452432 16.940800 -40.985400 0.000008 0.000006 4.844310 2.161570 -72.131600 -11.754300 -0.000006 -0.000006 -0.011739 0.283872 -5.036670
